<svg width="1080" height="1080" viewBox="0 0 1080 1080" xmlns="http://www.w3.org/2000/svg"><rect width="1080" height="1080" fill="#000000"/><path d="M779.8988168059961,1096.9999999999998C752.3369587362006,1236.446313073118,528.5809425332346,1438.9674144127052,443.39159736243704,1522.8389392193549C358.20225219163945,1606.7104640260045,368.3491342388523,1605.8897259889402,268.7627457812106,1600.229148839897C169.17635732356888,1594.568571690854,-16.205818123009635,1502.1071779285203,-154.12673338341315,1488.8754763250965C-292.0476486438167,1475.6437747216728,-465.90540967676156,1584.8181852735377,-558.7627457812105,1520.8389392193549C-651.6200818856594,1456.859693165172,-704.6040833434398,1248.112979739785,-711.2707500101066,1105C-717.9374166767733,961.8870202602151,-687.8474131526933,779.6243728082409,-598.7627457812107,662.1610607806452C-509.6780784097281,544.6977487530496,-308.5521043591619,441.2957025014276,-176.76274578121067,400.22012783442585C-44.97338720325945,359.1445531674241,61.05249042609313,368.05079062093154,191.97340568649665,415.7076127786347C322.89432094690017,463.3644349363379,510.7751772612939,572.6123295770841,608.7627457812105,686.1610607806449C706.750314301127,799.7097919842057,807.4606748757917,957.5536869268815,779.8988168059961,1096.9999999999998C752.3369587362006,1236.446313073118,528.5809425332346,1438.9674144127052,443.39159736243704,1522.8389392193549" fill="#ffed49"/></svg>